<svg width="24" height="24" viewBox="0 0 24 24" fill="none" xmlns="http://www.w3.org/2000/svg">
<g clip-path="url(#clip0_9738_9135)" filter="url(#filter0_d_9738_9135)">
<path d="M12.5426 9.03967C12.3596 9.22278 12.0628 9.22278 11.8797 9.03967L9.74959 6.90955C9.6617 6.82165 9.61226 6.70239 9.61226 6.57812C9.61226 6.45373 9.6617 6.33459 9.74959 6.24658L10.1282 5.86804L9.01607 4.75586L8.10493 5.66699C7.79829 5.97363 7.79842 6.47253 8.10493 6.77917L12.0101 10.6846C12.1577 10.8322 12.3552 10.9133 12.5662 10.9133C12.7773 10.9133 12.9748 10.832 13.1224 10.6844L14.0335 9.77344L12.9213 8.66113L12.5426 9.03967Z" fill="#5D6C7B"/>
<path d="M19.3276 5.64722C19.3276 4.14441 18.7388 2.72791 17.6692 1.65845C16.5997 0.588989 15.1832 0 13.6805 0H10.3345C10.3345 0 10.3345 0 10.3344 0C8.83179 0 7.41528 0.588989 6.34595 1.65833C5.27649 2.72778 4.6875 4.14441 4.6875 5.64709V8.27722C4.6875 9.44092 5.04248 10.5604 5.71411 11.5146C6.30664 12.3564 7.10352 13.0139 8.03259 13.4309V14.9417C8.03259 15.7228 8.46997 15.9999 8.84448 16C9.11206 16 9.37976 15.8679 9.64026 15.6075L11.3232 13.9243H13.6807C15.1833 13.9243 16.5999 13.3353 17.6693 12.2659C18.7388 11.1964 19.3278 9.77991 19.3278 8.27722L19.3276 5.64722ZM15.0293 10.1049L13.7866 11.3474C13.4619 11.6721 13.0291 11.8507 12.5676 11.8507C12.1062 11.8507 11.6733 11.672 11.3486 11.3474L7.44336 7.44202C6.77136 6.76978 6.77136 5.67615 7.44336 5.00403L8.68604 3.76147C8.77393 3.67346 8.89307 3.62415 9.01746 3.62415C9.14172 3.62415 9.26099 3.67346 9.34888 3.76147L11.124 5.53662C11.2119 5.62451 11.2612 5.74377 11.2612 5.86804C11.2612 5.99231 11.2119 6.11157 11.1239 6.19946L10.7454 6.578L12.2126 8.04529L12.5913 7.66663C12.7744 7.48364 13.0712 7.48364 13.2542 7.66675L15.0293 9.44189C15.1173 9.52979 15.1666 9.64905 15.1666 9.77332C15.1666 9.89771 15.1173 10.017 15.0293 10.1049ZM11.6526 4.55066C11.6526 4.29187 11.8624 4.08191 12.1213 4.08191C13.7455 4.08191 15.0669 5.4032 15.0669 7.02722C15.0669 7.28613 14.8571 7.49597 14.5981 7.49597C14.3394 7.49597 14.1294 7.28613 14.1294 7.02722C14.1294 5.92017 13.2286 5.01941 12.1213 5.01941C11.8624 5.01941 11.6526 4.80957 11.6526 4.55066ZM16.6063 7.49622C16.3474 7.49622 16.1376 7.28625 16.1376 7.02747C16.1377 5.95459 15.7198 4.94604 14.9613 4.18738C14.2026 3.42883 13.1941 3.01099 12.1212 3.01099C11.8624 3.01099 11.6525 2.80115 11.6525 2.54224C11.6525 2.28345 11.8624 2.07349 12.1212 2.07349C13.4445 2.07349 14.6885 2.58887 15.6241 3.52454C16.5599 4.46021 17.0752 5.70422 17.0751 7.02747C17.0751 7.28625 16.8652 7.49622 16.6063 7.49622Z" fill="#5D6C7B"/>
</g>
<defs>
<filter id="filter0_d_9738_9135" x="0" y="0" width="24" height="24" filterUnits="userSpaceOnUse" color-interpolation-filters="sRGB">
<feFlood flood-opacity="0" result="BackgroundImageFix"/>
<feColorMatrix in="SourceAlpha" type="matrix" values="0 0 0 0 0 0 0 0 0 0 0 0 0 0 0 0 0 0 127 0" result="hardAlpha"/>
<feOffset dy="4"/>
<feGaussianBlur stdDeviation="2"/>
<feComposite in2="hardAlpha" operator="out"/>
<feColorMatrix type="matrix" values="0 0 0 0 0 0 0 0 0 0 0 0 0 0 0 0 0 0 0.25 0"/>
<feBlend mode="normal" in2="BackgroundImageFix" result="effect1_dropShadow_9738_9135"/>
<feBlend mode="normal" in="SourceGraphic" in2="effect1_dropShadow_9738_9135" result="shape"/>
</filter>
<clipPath id="clip0_9738_9135">
<rect width="16" height="16" fill="white" transform="translate(4)"/>
</clipPath>
</defs>
</svg>
