<svg width="53" height="53" viewBox="0 0 53 53" fill="none" xmlns="http://www.w3.org/2000/svg">
<path d="M0.757812 0.992188H52.4303V52.6647H0.757812V0.992188Z" fill="white" fill-opacity="0.01"/>
<path d="M19.0553 9.26611C19.8374 9.26611 20.558 9.69028 20.9377 10.3741L23.5712 15.1181C23.916 15.7392 23.9323 16.4905 23.6145 17.126L21.0774 22.2003C21.0774 22.2003 21.8126 25.9804 24.8897 29.0575C27.9669 32.1346 31.7343 32.8571 31.7343 32.8571L36.8078 30.3205C37.4437 30.0025 38.1955 30.0189 38.8169 30.3644L43.5743 33.0094C44.2576 33.3893 44.6812 34.1094 44.6812 34.8911V40.3528C44.6812 43.1342 42.0976 45.143 39.4623 44.2537C34.0497 42.4274 25.6478 38.9501 20.3225 33.6247C14.9973 28.2994 11.5198 19.8976 9.6935 14.485C8.80429 11.8496 10.8132 9.26611 13.5945 9.26611H19.0553Z" fill="#2F88FF" stroke="black" stroke-width="4.30604" stroke-linejoin="round"/>
</svg>
